<svg xmlns="http://www.w3.org/2000/svg" viewBox="0 0 24 24" width="24" height="24"><defs></defs><g>
<g>
	<g transform="matrix(1,0,0,1,0,0)">
		<path d="M7.814859524274818,2.8864803233807734 C5.5803579299456345,2.8864803233807734 5.5803579299456345,5.627969874548623 5.5803579299456345,7.135788996966531 C5.5803579299456345,7.135788996966531 5.5803579299456345,9.740204201300397 5.5803579299456345,9.740204201300397 C5.5803579299456345,11.385097670552287 4.1345032935152215,11.93339636513231 2.820090443495492,12.481693752468246 C4.1345032935152215,13.029991139804181 5.5803579299456345,13.578289834384204 5.5803579299456345,15.223183303636095 C5.5803579299456345,15.223183303636095 5.5803579299456345,17.827597854347918 5.5803579299456345,17.827597854347918 C5.5803579299456345,19.33541763038787 5.5803579299456345,22.07690718155572 7.814859524274818,22.07690718155572" transform="matrix(1,0,0,1,0,0)" fill="none" stroke="#000000" stroke-width="1.7999999523162842" stroke-linecap="round" stroke-linejoin="round"/>
	</g>
	<g transform="matrix(1,0,0,1,0,0)">
		<path d="M17.150999362696673,2.9047865709127367 C19.385502210547642,2.9047865709127367 19.385502210547642,5.646276122080597 19.385502210547642,7.15409524449851 C19.385502210547642,7.15409524449851 19.385502210547642,9.758510448832386 19.385502210547642,9.758510448832386 C19.385502210547642,11.403403918084283 20.83135433993451,11.951702612664308 22.145767189954242,12.500000000000245 C20.83135433993451,13.048297387336182 19.385502210547642,13.596596081916207 19.385502210547642,15.241489551168105 C19.385502210547642,15.241489551168105 19.385502210547642,17.845904101879935 19.385502210547642,17.845904101879935 C19.385502210547642,19.353723877919894 19.385502210547642,22.095213429087753 17.150999362696673,22.095213429087753" transform="matrix(1,0,0,1,0,0)" fill="none" stroke="#000000" stroke-width="1.7999999523162842" stroke-linecap="round" stroke-linejoin="round"/>
	</g>
	<g transform="matrix(1,0,0,1,0,0)">
		<path d="M7.814859524274798,7.18307980567876 C7.814859524274798,6.1120829764564295 8.903298840379339,5.492032958651844 9.758500807108948,5.999346609582869 C9.758500807108948,5.999346609582869 18.05137102197496,11.354329411771024 18.05137102197496,11.354329411771024 C18.38857807437096,11.586951818547822 18.59289678023896,11.991041393151159 18.59289678023896,12.425326240993355 C18.59289678023896,12.859611088835555 18.38857807437096,13.263700663438891 18.05137102197496,13.49632307021569 C18.05137102197496,13.49632307021569 9.758500807108948,18.85130452848034 9.758500807108948,18.85130452848034 C9.40044939616774,19.204740282376633 8.87898701265712,19.281209529630118 8.447649170136476,19.043531282639478 C8.016311327615831,18.805853035648838 7.764584928409661,18.303335847695806 7.814859524274798,17.78030769925801 C7.814859524274798,17.78030769925801 7.814859524274798,7.18307980567876 7.814859524274798,7.18307980567876 C7.814859524274798,7.18307980567876 7.814859524274798,7.18307980567876 7.814859524274798,7.18307980567876 Z" fill="#000000"/>
	</g>
</g></g></svg>